<?xml version="1.0" encoding="UTF-8" standalone="no"?>
<svg width="17px" height="17px" viewBox="0 0 17 17" version="1.1" xmlns="http://www.w3.org/2000/svg" xmlns:xlink="http://www.w3.org/1999/xlink" xmlns:sketch="http://www.bohemiancoding.com/sketch/ns">
    <!-- Generator: Sketch 3.3.3 (12081) - http://www.bohemiancoding.com/sketch -->
    <title>Fill 213 Copy</title>
    <desc>Created with Sketch.</desc>
    <defs></defs>
    <g id="Page-1" stroke="none" stroke-width="1" fill="none" fill-rule="evenodd" sketch:type="MSPage">
        <g id="List-View" sketch:type="MSArtboardGroup" transform="translate(-1224.000000, -36.000000)" fill="#747474">
            <g id="HEADER" sketch:type="MSLayerGroup" transform="translate(-1.000000, 0.000000)">
                <g id="Group" sketch:type="MSShapeGroup">
                    <path d="M1236.66279,44.4998023 C1236.66279,42.7525581 1235.24665,41.3372093 1233.5,41.3372093 C1231.75295,41.3372093 1230.33721,42.7525581 1230.33721,44.4998023 C1230.33721,46.2454651 1231.75295,47.6627907 1233.5,47.6627907 C1235.24665,47.6627907 1236.66279,46.2454651 1236.66279,44.4998023 L1236.66279,44.4998023 Z M1240.64217,39.2813953 C1240.64217,39.5423256 1240.42908,39.7556163 1240.16815,39.7556163 L1238.7445,39.7556163 C1238.48397,39.7556163 1238.27008,39.5423256 1238.27008,39.2813953 L1238.27008,37.8581395 C1238.27008,37.5952326 1238.48397,37.3835233 1238.7445,37.3835233 L1240.16815,37.3835233 C1240.42908,37.3835233 1240.64217,37.5952326 1240.64217,37.8581395 L1240.64217,39.2813953 L1240.64217,39.2813953 Z M1239.34385,36 L1227.65635,36 C1226.18842,36 1225,37.1880233 1225,38.6547674 L1225,41.534686 L1229.30298,41.534686 C1230.23383,40.2183721 1231.7662,39.3604651 1233.5,39.3604651 C1235.2336,39.3604651 1236.76598,40.2183721 1237.69643,41.534686 L1242,41.534686 L1242,38.6547674 C1242,37.1880233 1240.8102,36 1239.34385,36 L1239.34385,36 Z M1238.63953,44.4998023 C1238.63953,47.3386047 1236.33821,49.6395349 1233.5,49.6395349 C1230.6612,49.6395349 1228.36047,47.3386047 1228.36047,44.4998023 C1228.36047,44.16 1228.39407,43.8298837 1228.45634,43.5116279 L1225,43.5116279 L1225,50.3432558 C1225,51.81 1226.18842,53 1227.65635,53 L1239.34385,53 C1240.8102,53 1242,51.81 1242,50.3432558 L1242,43.5116279 L1238.54347,43.5116279 C1238.60593,43.8298837 1238.63953,44.16 1238.63953,44.4998023 L1238.63953,44.4998023 Z" id="Fill-213-Copy"></path>
                </g>
            </g>
        </g>
    </g>
</svg>