<?xml version="1.0" encoding="UTF-8" standalone="no"?>
<svg width="20px" height="19px" viewBox="0 0 20 19" version="1.1" xmlns="http://www.w3.org/2000/svg" xmlns:xlink="http://www.w3.org/1999/xlink" xmlns:sketch="http://www.bohemiancoding.com/sketch/ns">
    <!-- Generator: Sketch 3.3.3 (12081) - http://www.bohemiancoding.com/sketch -->
    <title>Shape Copy</title>
    <desc>Created with Sketch.</desc>
    <defs></defs>
    <g id="Page-1" stroke="none" stroke-width="1" fill="none" fill-rule="evenodd" sketch:type="MSPage">
        <g id="List-View" sketch:type="MSArtboardGroup" transform="translate(-1190.000000, -36.000000)" fill="#747474">
            <g id="HEADER" sketch:type="MSLayerGroup" transform="translate(-1.000000, 0.000000)">
                <g id="Group" sketch:type="MSShapeGroup">
                    <path d="M1206.58348,43.6595668 C1206.80739,43.6040675 1207.02021,43.4551519 1207.23976,43.4509091 C1207.57811,43.4423473 1207.96007,43.4389837 1208.24804,43.5825863 C1208.74803,43.8319512 1208.78755,44.3757454 1208.33068,44.7065628 C1207.96447,44.9688087 1207.52334,45.1421487 1207.09616,45.3061622 C1206.14575,45.6731765 1206.01943,45.9494884 1206.50004,46.8498239 C1207.29656,48.3410823 1208.41175,49.4511076 1210.11812,49.8620015 C1210.29475,49.9038554 1210.57859,50.0988293 1210.5698,50.2013426 C1210.55042,50.4345775 1210.43602,50.7772822 1210.25936,50.85862 C1209.68548,51.1272109 1209.07755,51.3550182 1208.45975,51.4880331 C1208.07443,51.567307 1207.9298,51.7096483 1207.84873,52.0724963 C1207.67516,52.8377529 1207.5233,52.9330421 1206.78128,52.7842793 C1205.60154,52.5466489 1204.56433,52.7512167 1203.55903,53.476951 C1201.53063,54.9444349 1200.01911,54.9382046 1197.99495,53.4686567 C1197.00785,52.7491527 1195.98551,52.5479484 1194.8232,52.7868403 C1194.04372,52.9461907 1193.90994,52.8519335 1193.72372,52.059042 C1193.64678,51.7346842 1193.52561,51.5675746 1193.14782,51.4960599 C1192.56114,51.3854817 1191.97564,51.1928393 1191.4351,50.9392317 C1191.21662,50.8387825 1191.04343,50.4919115 1191.00058,50.2360106 C1190.98342,50.1308982 1191.3486,49.8904392 1191.57213,49.8281744 C1193.40907,49.3261194 1194.52774,48.0693954 1195.28019,46.403574 C1195.45785,46.0094216 1195.30798,45.7302812 1194.98163,45.5471563 C1194.69041,45.3867739 1194.36063,45.2958803 1194.05018,45.166229 C1193.85418,45.0837062 1193.654,45.0014127 1193.47413,44.8901082 C1193.10818,44.6642503 1192.8008,44.3836575 1193.01263,43.8978471 C1193.18516,43.4984582 1193.75346,43.2866662 1194.20089,43.4300013 C1194.45454,43.5104601 1194.70287,43.6151903 1194.96099,43.6719892 C1195.29922,43.7446888 1195.48992,43.6485205 1195.477,43.2339954 C1195.44707,42.2931438 1195.39337,41.3446094 1195.46954,40.4078858 C1195.63004,38.4286765 1196.78735,37.1224542 1198.5686,36.4277568 C1201.14324,35.4278893 1204.21765,36.1826346 1205.60597,38.6736458 C1206.09304,39.5471108 1206.16693,40.4923198 1206.20744,41.4568312 C1206.16895,42.0616671 1206.13799,42.6653563 1206.08995,43.2671344 C1206.05998,43.6595668 1206.26558,43.7386114 1206.58348,43.6595668 L1206.58348,43.6595668 Z" id="Shape-Copy"></path>
                </g>
            </g>
        </g>
    </g>
</svg>