<?xml version="1.0" encoding="UTF-8" standalone="no"?>
<svg width="19px" height="16px" viewBox="0 0 19 16" version="1.1" xmlns="http://www.w3.org/2000/svg" xmlns:xlink="http://www.w3.org/1999/xlink" xmlns:sketch="http://www.bohemiancoding.com/sketch/ns">
    <!-- Generator: Sketch 3.3.3 (12081) - http://www.bohemiancoding.com/sketch -->
    <title>Fill 211 Copy 2</title>
    <desc>Created with Sketch.</desc>
    <defs></defs>
    <g id="Page-1" stroke="none" stroke-width="1" fill="none" fill-rule="evenodd" sketch:type="MSPage">
        <g id="List-View" sketch:type="MSArtboardGroup" transform="translate(-1255.000000, -37.000000)" fill="#747474">
            <g id="HEADER" sketch:type="MSLayerGroup" transform="translate(-1.000000, 0.000000)">
                <g id="Group" sketch:type="MSShapeGroup">
                    <path d="M1275,38.8277174 C1274.29989,39.1375 1273.54815,39.3481522 1272.7613,39.441087 C1273.56467,38.9598913 1274.18424,38.1957609 1274.47543,37.285 C1273.72163,37.731087 1272.88728,38.0573913 1271.99924,38.2308696 C1271.2888,37.4729348 1270.27478,37 1269.15337,37 C1267.00141,37 1265.2563,38.7451087 1265.2563,40.8991304 C1265.2563,41.2047826 1265.28935,41.5021739 1265.3575,41.7871739 C1262.11717,41.6240217 1259.24446,40.0730435 1257.32174,37.7145652 C1256.98717,38.2886957 1256.79511,38.9598913 1256.79511,39.6744565 C1256.79511,41.0251087 1257.48283,42.2188043 1258.52783,42.918913 C1257.88967,42.8982609 1257.2887,42.7227174 1256.76207,42.4315217 L1256.76207,42.4790217 C1256.76207,44.3686957 1258.10652,45.9444565 1259.8888,46.3017391 C1259.5625,46.3905435 1259.21761,46.4380435 1258.86239,46.4380435 C1258.61043,46.4380435 1258.36674,46.4153261 1258.12924,46.3678261 C1258.62489,47.9167391 1260.06435,49.0443478 1261.77022,49.0753261 C1260.43609,50.1223913 1258.755,50.7440217 1256.92935,50.7440217 C1256.61543,50.7440217 1256.30359,50.7254348 1256,50.6903261 C1257.72446,51.7952174 1259.77315,52.4416304 1261.97467,52.4416304 C1269.14511,52.4416304 1273.06696,46.5020652 1273.06696,41.3493478 C1273.06696,41.1820652 1273.06283,41.0127174 1273.05457,40.8454348 C1273.81663,40.296087 1274.4775,39.6104348 1275,38.8277174" id="Fill-211-Copy-2"></path>
                </g>
            </g>
        </g>
    </g>
</svg>